<svg width="46" height="48" viewBox="0 0 46 48" fill="none" xmlns="http://www.w3.org/2000/svg">
<path d="M24.4077 35.1351C24.515 34.7062 24.515 34.1702 24.515 33.6342C24.515 33.0981 24.515 32.6693 24.4077 32.1333L27.4096 29.9891C27.7312 29.7747 27.8384 29.3459 27.624 29.0242L24.7294 24.0927C24.515 23.7711 24.1933 23.6639 23.8717 23.7711L20.5483 25.3792C19.7978 24.7359 18.9402 24.3071 17.9753 23.8783L17.6537 20.2332C17.6537 19.9116 17.332 19.59 17.0104 19.59H11.3284C11.0068 19.59 10.6852 19.9116 10.6852 20.2332L10.2563 23.9855C9.29147 24.3071 8.54101 24.8431 7.68335 25.4864L4.35991 23.9855C4.03829 23.8783 3.60946 23.9855 3.50225 24.3071L0.607645 29.2387C0.39323 29.5603 0.500437 29.9891 0.82206 30.2035L3.82388 32.3477C3.71667 32.7765 3.71667 33.3125 3.71667 33.8486C3.71667 34.3846 3.71667 34.8135 3.82388 35.3495L0.82206 37.4936C0.500437 37.7081 0.39323 38.1369 0.607645 38.4585L3.50225 43.3901C3.71667 43.7117 4.03829 43.8189 4.35991 43.7117L7.68335 42.2108C8.4338 42.854 9.29147 43.2829 10.2563 43.7117L10.578 47.3567C10.578 47.6784 10.8996 48 11.2212 48H16.9032C17.2248 48 17.5465 47.6784 17.5465 47.3567L17.8681 43.7117C18.8329 43.3901 19.5834 42.854 20.4411 42.2108L23.7645 43.7117C24.0861 43.8189 24.515 43.7117 24.6222 43.3901L27.5168 38.4585C27.7312 38.1369 27.624 37.7081 27.3024 37.4936L24.4077 35.1351ZM14.1158 38.9946C11.114 38.9946 8.75543 36.636 8.75543 33.6342C8.75543 30.6324 11.114 28.2738 14.1158 28.2738C17.1176 28.2738 19.4762 30.6324 19.4762 33.6342C19.4762 36.636 17.1176 38.9946 14.1158 38.9946Z" fill="#1976D2"/>
<path d="M41.8819 14.6585C41.9891 14.1225 41.9891 13.6937 41.9891 13.2648C41.9891 12.836 41.9891 12.4072 41.8819 11.8711L44.5621 9.94138C44.8837 9.72697 44.8837 9.40535 44.7765 9.08372L42.0963 4.47379C41.8819 4.15217 41.5603 4.04496 41.2386 4.25938L38.1296 5.65308C37.3792 5.11704 36.6287 4.68821 35.771 4.25938L35.4494 0.935941C35.5566 0.614318 35.3422 0.399902 35.0206 0.399902H29.7674C29.4458 0.399902 29.1242 0.614318 29.1242 0.935941L28.8025 4.25938C27.9449 4.581 27.1944 5.00983 26.444 5.65308L23.335 4.25938C23.0133 4.15217 22.6917 4.25938 22.4773 4.47379L19.7971 9.08372C19.5827 9.40535 19.6899 9.72697 20.0115 9.94138L22.6917 11.8711V13.2648C22.6917 13.2648 22.6917 14.1225 22.7989 14.6585L20.1187 16.5883C19.7971 16.8027 19.7971 17.1243 19.9043 17.4459L22.5845 22.0559C22.7989 22.3775 23.1205 22.4847 23.4422 22.2703L26.5512 20.8766C27.3016 21.4126 28.0521 21.8414 28.9097 22.2703L29.2314 25.5937C29.2314 25.9153 29.553 26.1297 29.8746 26.1297H35.1278C35.4494 26.1297 35.771 25.9153 35.771 25.5937L36.0927 22.2703C36.9503 21.9486 37.7008 21.5198 38.4512 20.8766L41.5603 22.2703C41.8819 22.3775 42.2035 22.2703 42.4179 22.0559L45.0981 17.4459C45.3125 17.1243 45.2053 16.8027 44.8837 16.5883L41.8819 14.6585ZM32.3404 18.6252C29.3386 18.6252 26.98 16.2666 26.98 13.2648C26.98 10.263 29.3386 7.90444 32.3404 7.90444C35.3422 7.90444 37.7008 10.263 37.7008 13.2648C37.7008 16.2666 35.3422 18.6252 32.3404 18.6252Z" fill="#B8E5FF"/>
</svg>
