<svg width="54" height="54" viewBox="0 0 54 54" fill="none" xmlns="http://www.w3.org/2000/svg">
<g id="Group 219">
<path id="Vector" d="M26.9994 1.28564C12.8566 1.28564 1.28516 12.8571 1.28516 26.9999C1.28516 41.1428 12.8566 52.7142 26.9994 52.7142C41.1423 52.7142 52.7137 41.1428 52.7137 26.9999C52.7137 12.8571 41.1423 1.28564 26.9994 1.28564Z" fill="#29C64C"/>
<path id="Vector_2" d="M54 27C54 42.0429 41.7857 54 27 54C12.2143 54 0 42.0429 0 27C0 11.9571 11.9571 0 27 0C42.0429 0 54 11.9571 54 27ZM26.7429 39.4714C26.7429 38.9571 26.4857 38.7 25.9714 38.4429C24.3 37.9286 22.7571 37.9286 21.3429 36.5143C21.0857 36 21.0857 35.4857 20.8286 34.8429C20.3143 34.3286 18.9 34.0714 18.1286 33.8143C17.1 33.8143 15.9429 33.8143 14.6571 33.8143C14.1429 33.8143 13.2429 33.8143 12.7286 33.8143C11.9571 33.5571 11.3143 32.4 10.8 31.6286C10.8 31.3714 10.8 30.8571 10.2857 30.8571C9.77143 30.6 9.25714 31.1143 8.61429 30.8571C8.35714 30.6 8.35714 30.3429 8.35714 30.0857C8.35714 29.3143 8.87143 28.4143 9.38571 27.9C10.1571 27.3857 11.0571 28.1571 11.8286 28.1571C12.0857 28.1571 12.0857 28.1571 12.3429 28.4143C13.1143 28.6714 13.3714 29.7 13.3714 30.6V31.1143C13.3714 31.3714 13.6286 31.3714 13.8857 31.3714C14.1429 29.9571 14.1429 28.6714 14.4 27.2571C14.4 25.5857 16.0714 24.0429 17.3571 23.5286C17.8714 23.2714 18.1286 23.7857 18.7714 23.5286C20.4429 23.0143 24.4286 21.3429 23.6571 19.1571C23.1429 17.2286 21.4714 15.4286 19.2857 15.6857C18.7714 15.9429 18.5143 16.2 18 16.4571C17.2286 16.9714 15.5571 18.6429 14.7857 18.6429C13.3714 18.3857 13.3714 16.4571 13.7571 15.6857C14.0143 14.6571 16.4571 11.0571 18.1286 11.7C18.3857 11.9571 18.9 12.4714 19.1571 12.7286C19.6714 12.9857 20.5714 12.9857 21.3429 12.9857C21.6 12.9857 21.8571 12.9857 22.1143 12.7286C22.3714 12.4714 22.3714 12.4714 22.3714 12.2143C22.3714 11.4429 21.6 10.5429 21.0857 10.0286C20.5714 9.51429 19.6714 9 18.9 8.61429C16.2 7.84286 11.8286 8.87143 9.77143 10.8C7.71429 12.7286 6.04286 15.9429 4.88571 18.6429C4.37143 20.3143 3.85714 22.3714 3.6 24.3C3.34286 25.5857 3.08571 26.7429 3.85714 28.0286C4.62857 29.7 6.3 31.2429 7.97143 32.4C9 33.1714 11.1857 33.1714 12.3429 34.5857C13.1143 35.6143 12.8571 37.0286 12.8571 38.3143C12.8571 39.9857 13.8857 41.2714 14.5286 42.6857C14.7857 43.4571 15.0429 44.6143 15.3 45.3857C15.3 45.6429 15.5571 47.3143 15.5571 47.5714C17.2286 48.3429 18.5143 49.2429 20.4429 49.7571C20.7 49.7571 21.7286 48.0857 21.7286 47.8286C22.5 47.0571 23.1429 45.9 23.9143 45.3857C24.4286 45.1286 24.9429 44.8714 25.5857 44.3571C26.1 43.8429 26.3571 42.6857 26.6143 41.9143C26.7429 41.2714 27 40.2429 26.7429 39.4714ZM27.2571 14.5286C27.5143 14.5286 27.7714 14.2714 28.2857 14.0143C29.0571 13.5 29.9571 12.6 30.7286 12.0857C31.5 11.5714 32.4 10.6714 32.9143 10.1571C33.6857 9.64286 34.3286 8.48571 34.5857 7.71429C34.8429 7.2 35.6143 6.04286 35.3571 5.27143C35.1 4.75714 33.6857 4.5 33.1714 4.24286C30.9857 3.72857 29.1857 3.47143 27 3.47143C26.2286 3.47143 25.0714 3.72857 24.8143 4.5C24.5571 5.91429 25.5857 5.52857 26.7429 5.91429C26.7429 5.91429 27 8.1 27 8.35714C27.2571 9.64286 26.4857 10.5429 26.4857 11.8286C26.4857 12.6 26.4857 14.0143 27 14.5286H27.2571ZM49.8857 33.4286C50.1429 32.9143 50.1429 32.0143 50.4 31.5C50.6571 30.2143 50.6571 28.8 50.6571 27.5143C50.6571 24.8143 50.4 22.1143 49.6286 19.6714C49.1143 18.9 48.8571 18 48.6 17.2286C48.0857 15.8143 47.3143 14.5286 46.1571 13.5C45.1286 12.0857 43.7143 8.35714 41.2714 9.51429C40.5 9.77143 39.9857 10.8 39.3429 11.4429C38.8286 12.2143 38.3143 13.1143 37.6714 13.8857C37.4143 14.1429 37.1571 14.6571 37.4143 14.9143C37.4143 15.1714 37.6714 15.1714 37.9286 15.1714C38.4429 15.4286 38.7 15.4286 39.2143 15.6857C39.4714 15.6857 39.7286 15.9429 39.4714 16.2C39.4714 16.2 39.4714 16.4571 39.2143 16.4571C37.9286 17.8714 36.5143 18.9 35.2286 20.1857C34.9714 20.4429 34.7143 20.9571 34.7143 21.2143C34.7143 21.4714 34.9714 21.4714 34.9714 21.7286C34.9714 21.9857 34.7143 21.9857 34.4571 22.2429C33.9429 22.5 33.4286 22.7571 33.0429 23.0143C32.7857 23.5286 33.0429 24.4286 32.7857 24.9429C32.5286 26.3571 31.7571 27.3857 31.1143 28.6714C30.6 29.4429 30.3429 30.3429 29.8286 31.1143C29.8286 32.1429 29.5714 33.0429 30.0857 33.8143C31.3714 35.7429 33.8143 34.5857 35.7429 35.4857C36.2571 35.7429 36.7714 35.7429 37.1571 36.2571C37.9286 37.0286 37.9286 38.4429 38.1857 39.2143C38.4429 40.2429 38.7 41.4 39.2143 42.4286C39.4714 43.7143 39.9857 45.1286 40.2429 46.1571C42.6857 44.2286 44.8714 42.1714 46.4143 39.4714C48.3429 37.8 49.1143 35.6143 49.8857 33.4286Z" fill="#93F2FF"/>
</g>
</svg>
