<svg width="65" height="69" viewBox="0 0 65 69" fill="none" xmlns="http://www.w3.org/2000/svg">
<g id="Group 218">
<path id="Vector" d="M34.4609 50.0595C34.6154 49.4415 34.6154 48.6689 34.6154 47.8964C34.6154 47.1239 34.6154 46.5059 34.4609 45.7334L38.787 42.6432C39.2506 42.3342 39.4051 41.7162 39.0961 41.2527L34.9244 34.1455C34.6154 33.682 34.1519 33.5274 33.6884 33.6819L28.8987 35.9995C27.8172 35.0725 26.5811 34.4545 25.1906 33.8365L24.7271 28.5833C24.7271 28.1198 24.2636 27.6562 23.8001 27.6562H15.6113C15.1478 27.6562 14.6842 28.1198 14.6842 28.5833L14.0662 33.991C12.6757 34.4545 11.5941 35.227 10.3581 36.154L5.56845 33.991C5.10493 33.8365 4.48691 33.991 4.3324 34.4545L0.160766 41.5617C-0.148245 42.0252 0.00626006 42.6432 0.469775 42.9523L4.79592 46.0424C4.64141 46.6604 4.64141 47.4329 4.64141 48.2054C4.64141 48.978 4.64141 49.596 4.79592 50.3685L0.469775 53.4586C0.00626006 53.7676 -0.148245 54.3856 0.160766 54.8492L4.3324 61.9564C4.64141 62.4199 5.10493 62.5744 5.56845 62.4199L10.3581 60.2568C11.4396 61.1839 12.6757 61.8019 14.0662 62.4199L14.5297 67.6731C14.5297 68.1366 14.9933 68.6001 15.4568 68.6001H23.6455C24.1091 68.6001 24.5726 68.1366 24.5726 67.6731L25.0361 62.4199C26.4266 61.9564 27.5082 61.1839 28.7442 60.2568L33.5339 62.4199C33.9974 62.5744 34.6154 62.4199 34.7699 61.9564L38.9416 54.8492C39.2506 54.3856 39.0961 53.7676 38.6325 53.4586L34.4609 50.0595ZM19.6284 55.6217C15.3023 55.6217 11.9032 52.2226 11.9032 47.8964C11.9032 43.5703 15.3023 40.1712 19.6284 40.1712C23.9546 40.1712 27.3537 43.5703 27.3537 47.8964C27.3537 52.2226 23.9546 55.6217 19.6284 55.6217Z" fill="#1976D2"/>
<path id="Vector_2" d="M59.6451 20.5492C59.7996 19.7767 59.7996 19.1586 59.7996 18.5406C59.7996 17.9226 59.7996 17.3046 59.6451 16.532L63.5077 13.751C63.9712 13.4419 63.9712 12.9784 63.8167 12.5149L59.9541 5.87119C59.6451 5.40768 59.1816 5.25317 58.718 5.56218L54.2374 7.57075C53.1559 6.79823 52.0743 6.1802 50.8383 5.56218L50.3748 0.772526C50.5293 0.30901 50.2203 0 49.7567 0H42.186C41.7225 0 41.259 0.30901 41.259 0.772526L40.7954 5.56218C39.5594 6.0257 38.4779 6.64372 37.3963 7.57075L32.9157 5.56218C32.4522 5.40768 31.9887 5.56218 31.6796 5.87119L27.817 12.5149C27.508 12.9784 27.6625 13.4419 28.126 13.751L31.9887 16.532V18.5406C31.9887 18.5406 31.9887 19.7767 32.1432 20.5492L28.2805 23.3303C27.817 23.6393 27.817 24.1028 27.9715 24.5663L31.8341 31.21C32.1432 31.6736 32.6067 31.8281 33.0702 31.519L37.5508 29.5105C38.6324 30.283 39.7139 30.901 40.95 31.519L41.4135 36.3087C41.4135 36.7722 41.877 37.0812 42.3405 37.0812H49.9112C50.3748 37.0812 50.8383 36.7722 50.8383 36.3087L51.3018 31.519C52.5378 31.0555 53.6194 30.4375 54.7009 29.5105L59.1816 31.519C59.6451 31.6735 60.1086 31.519 60.4176 31.21L64.2802 24.5663C64.5892 24.1028 64.4347 23.6393 63.9712 23.3303L59.6451 20.5492ZM45.8941 26.2659C41.568 26.2659 38.1689 22.8668 38.1689 18.5406C38.1689 14.2145 41.568 10.8154 45.8941 10.8154C50.2203 10.8154 53.6194 14.2145 53.6194 18.5406C53.6194 22.8668 50.2203 26.2659 45.8941 26.2659Z" fill="#59A8F6"/>
</g>
</svg>
