<svg width="56" height="55" viewBox="0 0 56 55" fill="none" xmlns="http://www.w3.org/2000/svg">
<g id="Group 226">
<path id="Vector" d="M49.5498 10.0397L45.0392 13.6773C48.2403 17.6059 49.9863 22.553 49.9863 27.5C49.9863 39.5768 40.2377 49.3254 28.1609 49.3254C26.8514 49.3254 25.3964 49.1799 24.0869 48.8889L23.0684 54.5635C24.8144 54.8545 26.5604 55 28.1609 55C43.4387 55 55.8064 42.6323 55.8064 27.3545C55.8064 21.2434 53.6239 14.9868 49.5498 10.0397Z" fill="#59A8F7"/>
<path id="Vector_2" d="M38.3477 4.36511L55.6625 6.69315L41.4032 20.9524L38.3477 4.36511Z" fill="#59A8F7"/>
<path id="Vector_3" d="M28.1631 0C12.8853 0 0.517578 12.3677 0.517578 27.6455C0.517578 34.3386 2.84562 40.7407 7.2107 45.6878L11.5758 41.9047C8.22922 37.9762 6.33768 32.8836 6.33768 27.6455C6.33768 15.5688 16.0864 5.8201 28.1631 5.8201C29.4726 5.8201 30.9276 5.96561 32.2371 6.25661L33.2557 0.58201C31.6551 0.145503 29.9091 0 28.1631 0Z" fill="#1976D2"/>
<path id="Vector_4" d="M17.9789 50.9259L0.664062 48.5979L14.9233 34.3386L17.9789 50.9259Z" fill="#1976D2"/>
</g>
</svg>
