<svg width="48" height="61" viewBox="0 0 48 61" fill="none" xmlns="http://www.w3.org/2000/svg">
<g id="Group 229">
<path id="Vector" d="M34.5467 43.1728C36.4521 42.4473 38.0206 41.2032 39.5659 39.9199C39.7833 39.7381 40.0115 39.567 40.2325 39.3906C41.8473 43.2494 43.4621 47.1082 45.0752 50.9671C45.5422 52.0846 46.0074 53.2039 46.4601 54.3268C46.7934 55.1538 46.5938 55.6654 45.8024 55.9648C45.6313 56.0308 45.3853 56.0005 45.2053 55.931C42.7938 54.9863 40.3876 54.0256 37.9796 53.072C37.8994 53.04 37.812 53.0293 37.6873 52.999C37.0848 54.4979 36.4877 55.9844 35.8906 57.4709C35.5306 58.3675 35.1902 59.2729 34.807 60.1605C34.5966 60.6471 34.2152 61.0909 33.6662 60.984C33.3062 60.9127 32.8588 60.5687 32.7127 60.2318C31.5167 57.4656 30.3849 54.6726 29.2299 51.8885C28.4706 50.058 27.7096 48.2311 26.9467 46.4024C26.8647 46.2063 26.7667 46.0156 26.6758 45.8214C27.2016 45.6895 27.7327 45.5754 28.2532 45.4257C29.8573 44.9587 31.4614 44.4953 33.0531 43.9926C33.4399 43.8714 33.7803 43.6041 34.1421 43.4027C34.1493 43.4187 34.1546 43.4348 34.1653 43.4472C34.1724 43.4544 34.1867 43.4544 34.1974 43.4579C34.1778 43.4401 34.16 43.4205 34.1403 43.4027C34.2312 43.3332 34.3221 43.2654 34.4113 43.1959C34.4273 43.2334 34.4451 43.2726 34.4612 43.3118C34.4897 43.2654 34.5182 43.2191 34.5467 43.1745V43.1728Z" fill="#1976D2"/>
<path id="Vector_2" d="M6.71112 39.3906C7.5114 40.018 8.29208 40.6703 9.11375 41.2674C11.798 43.2191 14.746 44.604 18.0024 45.3009C18.751 45.4613 19.4978 45.6235 20.2464 45.7857C18.3215 50.37 16.3965 54.956 14.4698 59.5403C14.3593 59.8023 14.2915 60.1124 14.1044 60.3067C13.8317 60.5883 13.4734 60.9608 13.1455 60.9679C12.8336 60.9751 12.3577 60.6329 12.2186 60.3245C11.5592 58.8594 10.9924 57.3533 10.3881 55.8632C10.0584 55.0469 9.71619 54.2341 9.3918 53.4143C9.25456 53.0685 9.11553 52.9508 8.70202 53.1219C6.45445 54.0559 4.19263 54.956 1.92545 55.8436C1.47629 56.0201 1.00931 56.0842 0.574415 55.6796C0.123475 55.2608 0.212594 54.8259 0.408655 54.3607C1.8595 50.9118 3.31214 47.4629 4.76477 44.0158C5.41355 42.4741 6.06233 40.9323 6.7129 39.3923L6.71112 39.3906Z" fill="#1976D2"/>
<circle id="Ellipse 28" cx="23.8416" cy="23.8416" r="23.8416" fill="#59A8F6"/>
<circle id="Ellipse 29" cx="23.8428" cy="23.8416" r="17.6221" fill="#1976D2"/>
<path id="Vector_3" d="M34.5456 44.3682C34.5171 44.4146 34.4886 44.4609 34.4601 44.5055C34.444 44.4663 34.4262 44.4288 34.4102 44.3896C34.4547 44.3825 34.4993 44.3754 34.5438 44.3665L34.5456 44.3682Z" fill="#FF5B59"/>
<path id="Vector_4" d="M34.1387 44.5981C34.1583 44.616 34.1762 44.6357 34.1958 44.6535C34.1851 44.6499 34.169 44.6499 34.1637 44.6428C34.153 44.6303 34.1476 44.6124 34.1405 44.5981H34.1387Z" fill="#FF5B59"/>
<path id="Vector_5" d="M29.9728 33.0744C28.736 32.2151 27.5022 31.3543 26.2623 30.4981C25.8905 30.2409 25.502 30.0064 25.1287 29.7492C24.3198 29.1895 24.3244 29.1895 23.5064 29.7235C21.8796 30.7855 20.2603 31.8611 18.6077 32.8823C18.3649 33.032 17.8474 33.0426 17.6456 32.8823C17.4088 32.6947 17.2115 32.2075 17.2844 31.9231C17.685 30.3438 18.1722 28.7871 18.629 27.2213C18.7868 26.6827 18.9643 26.1487 19.0842 25.6026C19.1131 25.471 18.9886 25.2486 18.8672 25.1518C17.2556 23.8507 15.6363 22.5603 14.011 21.2774C13.6422 20.9854 13.3539 20.636 13.5254 20.1716C13.6908 19.7238 14.0762 19.4666 14.5953 19.4862C14.7652 19.4938 14.9352 19.4878 15.1067 19.4847C16.9945 19.4454 18.8824 19.4151 20.7687 19.3486C20.9493 19.3425 21.2134 19.1534 21.2817 18.9855C21.7779 17.7662 22.2104 16.5226 22.7097 15.3048C23.0572 14.4576 23.4715 13.6377 23.8646 12.8087C24.0922 12.3306 24.464 12.3911 24.8571 12.5742C24.9284 12.6498 25.0012 12.7255 25.0741 12.8011C25.1925 13.0658 25.3093 13.3291 25.4277 13.5938C25.4277 13.6695 25.4277 13.7451 25.4277 13.8207C25.4231 13.8586 25.4231 13.8964 25.4277 13.9342C25.5005 14.0098 25.5734 14.084 25.6462 14.1596C26.2745 15.7995 26.8967 17.4424 27.5462 19.0748C27.6008 19.2109 27.8361 19.3501 27.9954 19.3592C29.6678 19.4545 31.3416 19.5195 33.014 19.6012C33.5012 19.6254 34.0019 19.6148 34.4678 19.7328C34.7516 19.8039 35.0931 20.0399 35.2023 20.2911C35.2995 20.5135 35.2145 20.9779 35.0354 21.1322C34.0535 21.9779 33.0201 22.7645 31.9988 23.5633C31.2885 24.12 30.554 24.648 29.8651 25.2289C29.7254 25.3454 29.648 25.6646 29.6951 25.8522C30.0153 27.123 30.3825 28.3816 30.724 29.6479C30.9289 30.4073 31.1322 31.1667 31.3022 31.9337C31.4934 32.7945 31.0639 33.209 30.0669 33.1682C30.035 33.1379 30.0032 33.1077 29.9713 33.0774L29.9728 33.0744Z" fill="#59A8F6"/>
</g>
</svg>
